<?xml version="1.0" encoding="UTF-8"?>
<svg version="1.1" xmlns="http://www.w3.org/2000/svg" width="450" height="528">
<path d="M0 0 C6.41108013 4.21054594 11.99928991 9.544277 17.62890625 14.7265625 C53.90195546 47.90851708 100.08542463 61.14756549 147.97460938 65.96240234 C165.86571296 67.77389731 179.76400937 74.17579515 191.62109375 87.9453125 C200.86021463 100.74347217 202.78255829 115.01273221 202.77416992 130.32177734 C202.77920784 131.67564796 202.77920784 131.67564796 202.78434753 133.05686951 C202.79377866 136.01709406 202.79579784 138.97726139 202.796875 141.9375 C202.80009704 144.03089418 202.80346179 146.12428815 202.80696106 148.21768188 C202.81293579 152.6070406 202.81480307 156.9963797 202.81420898 161.38574219 C202.81412826 165.83077104 202.82098469 170.27569568 202.8347168 174.72070312 C202.98114256 222.85092457 202.98114256 222.85092457 200.62890625 245.7265625 C200.51181808 246.91152313 200.51181808 246.91152313 200.3923645 248.12042236 C199.9477482 252.54289209 199.41347752 256.94664826 198.81640625 261.3515625 C198.64536377 262.63313232 198.47432129 263.91470215 198.2980957 265.23510742 C190.97832535 318.34531196 174.256758 369.33201081 140.62890625 411.7265625 C139.85933594 412.70882813 139.08976562 413.69109375 138.296875 414.703125 C123.83323551 432.78918952 107.31747446 448.09824126 88.62890625 461.7265625 C87.74887939 462.36851562 87.74887939 462.36851562 86.85107422 463.0234375 C79.04989406 468.66538288 70.94825785 473.74276769 62.62548828 478.56738281 C61.29508178 479.33979295 59.96790675 480.11779615 58.64404297 480.90136719 C44.85259295 489.04616064 30.38336074 495.52990843 15.62890625 501.7265625 C14.61618652 502.1587207 13.6034668 502.59087891 12.56005859 503.03613281 C-8.89583738 512.07208298 -22.59578939 511.55006379 -44.21484375 502.76953125 C-73.96445262 490.25561272 -101.87524927 475.59988372 -127.37109375 455.7265625 C-128.24894531 455.04335938 -129.12679687 454.36015625 -130.03125 453.65625 C-189.81931235 405.93146386 -219.6047222 336.89072872 -229.55859375 262.3515625 C-229.71352295 261.20864746 -229.86845215 260.06573242 -230.02807617 258.88818359 C-230.5381881 254.83894457 -230.97007304 250.78784252 -231.37109375 246.7265625 C-231.45969666 245.86299133 -231.54829956 244.99942017 -231.6395874 244.10968018 C-233.8869074 221.28994692 -233.67943663 198.4182216 -233.63183594 175.51318359 C-233.62034425 169.92822377 -233.62709136 164.34345423 -233.63898087 158.75850105 C-233.64624218 154.39845366 -233.64389367 150.03845075 -233.63872528 145.67840195 C-233.63740571 143.61898652 -233.63897601 141.55956687 -233.64368439 139.5001564 C-233.70859955 103.21337546 -233.70859955 103.21337546 -222.37109375 88.7265625 C-221.77941406 87.96859375 -221.18773437 87.210625 -220.578125 86.4296875 C-209.80384704 73.47700362 -196.11840166 67.59047419 -179.5390625 65.85546875 C-177.21297228 65.65784436 -174.88609681 65.46928631 -172.55859375 65.2890625 C-131.39832945 61.52163587 -92.46348646 48.94179876 -59.37109375 23.7265625 C-58.49195313 23.06011719 -57.6128125 22.39367187 -56.70703125 21.70703125 C-51.99708949 18.03626711 -47.60233091 14.11403295 -43.24609375 10.0390625 C-31.54475905 -0.86563288 -15.6756161 -7.37364006 0 0 Z " fill="#FFFFFF" transform="translate(240.37109375,9.2734375)"/>
<path d="M0 0 C0.33 0 0.66 0 1 0 C0.125 6.875 0.125 6.875 -1 8 C-1.36871088 9.65919896 -1.69595322 11.32774271 -2 13 C-2.88888889 17.88888889 -2.88888889 17.88888889 -4 19 C-4.97865828 25.06458366 -5.14831521 30.99527209 -5.14526367 37.12866211 C-5.14862228 38.11023788 -5.1519809 39.09181366 -5.15544128 40.10313416 C-5.16489212 43.32788377 -5.16689127 46.55258117 -5.16796875 49.77734375 C-5.17118481 52.03121461 -5.17454914 54.28508526 -5.17805481 56.53895569 C-5.18403096 61.25538619 -5.18589621 65.9717984 -5.18530273 70.68823242 C-5.18520106 76.71815985 -5.1988655 82.74796967 -5.21607494 88.77786922 C-5.2272159 93.43026768 -5.22922131 98.08263786 -5.22869301 102.73504829 C-5.22986949 104.95769215 -5.23427254 107.18033681 -5.24202538 109.40296745 C-5.25186996 112.51604242 -5.24892982 115.62886394 -5.24291992 118.74194336 C-5.24853943 119.65079285 -5.25415894 120.55964233 -5.25994873 121.49603271 C-5.23531246 126.5416772 -4.72467344 131.08781644 -3.44460011 135.97455692 C-2.68628369 139.42918215 -2.82652868 142.8575454 -2.9375 146.375 C-3.11833064 151.75704667 -3.11833064 151.75704667 -2 157 C-1.79562322 159.39291146 -1.63468331 161.78965606 -1.5 164.1875 C-1.25783501 168.35612621 -0.99374794 172.49208104 -0.375 176.625 C-0.02609095 179.76518148 -0.15068067 181.98019795 -1 185 C-1.33 185 -1.66 185 -2 185 C-2.54488204 181.09937425 -3.07671013 177.19715669 -3.59912109 173.29345703 C-3.8608284 171.35497014 -4.13133531 169.4176772 -4.40234375 167.48046875 C-8.15247176 139.28506188 -8.31970737 111.18004849 -8.26074219 82.78662109 C-8.2492505 77.20166127 -8.25599761 71.61689173 -8.26788712 66.03193855 C-8.27514843 61.67189116 -8.27279992 57.31188825 -8.26763153 52.95183945 C-8.26631196 50.89242402 -8.26788226 48.83300437 -8.27259064 46.7735939 C-8.32440224 17.81154394 -8.32440224 17.81154394 -3.4375 7.25 C-3.00308594 6.28578125 -2.56867187 5.3215625 -2.12109375 4.328125 C-1.42403406 2.88057247 -0.71851242 1.43702485 0 0 Z " fill="#FFFFFF" transform="translate(15,102)"/>
<path d="M0 0 C0.66 0 1.32 0 2 0 C2.49191327 1.45408326 2.96761922 2.91364828 3.4375 4.375 C3.70433594 5.18710938 3.97117187 5.99921875 4.24609375 6.8359375 C6.02232467 14.2905854 6.14944553 21.96318121 6.14526367 29.59521484 C6.15030159 30.94908546 6.15030159 30.94908546 6.15544128 32.33030701 C6.16487241 35.29053156 6.16689159 38.25069889 6.16796875 41.2109375 C6.17119079 43.30433168 6.17455554 45.39772565 6.17805481 47.49111938 C6.18402954 51.8804781 6.18589682 56.2698172 6.18530273 60.65917969 C6.18522201 65.10420854 6.19207844 69.54913318 6.20581055 73.99414062 C6.35162619 121.78809658 6.35162619 121.78809658 4 145 C3.67 145 3.34 145 3 145 C3.33 101.77 3.66 58.54 4 14 C3.34 14 2.68 14 2 14 C1.77213542 11.94921875 1.54427083 9.8984375 1.31640625 7.84765625 C1.18113386 5.98859771 1.18113386 5.98859771 0 5 C-0.04063832 3.33382885 -0.042721 1.66611905 0 0 Z " fill="#FFFFFF" transform="translate(437,110)"/>
<path d="M0 0 C0.99 0.33 1.98 0.66 3 1 C0.2680463 6.09577179 -2.74392382 10.35940797 -6.5625 14.6875 C-7.08336182 15.28546387 -7.60422363 15.88342773 -8.14086914 16.49951172 C-9.75189595 18.34089371 -11.37362103 20.1721707 -13 22 C-13.51143555 22.5760498 -14.02287109 23.15209961 -14.54980469 23.74560547 C-23.56612305 33.8589775 -23.56612305 33.8589775 -29 38 C-29 36.02 -29 34.04 -29 32 C-27.02 31.34 -25.04 30.68 -23 30 C-23 29.01 -23 28.02 -23 27 C-22.34 27 -21.68 27 -21 27 C-21.33 26.01 -21.66 25.02 -22 24 C-20.68 23.67 -19.36 23.34 -18 23 C-18 22.34 -18 21.68 -18 21 C-17.01 21 -16.02 21 -15 21 C-15 19.35 -15 17.7 -15 16 C-12 16 -12 16 -10 17 C-9.67 15.35 -9.34 13.7 -9 12 C-8.34 12 -7.68 12 -7 12 C-7 11.34 -7 10.68 -7 10 C-6.34 10 -5.68 10 -5 10 C-4.855625 9.38125 -4.71125 8.7625 -4.5625 8.125 C-4 6 -4 6 -3 4 C-2.34 4 -1.68 4 -1 4 C-0.67 2.68 -0.34 1.36 0 0 Z " fill="#FFFFFF" transform="translate(384,411)"/>
<path d="M0 0 C0.66 0 1.32 0 2 0 C-3.35209672 12.6196807 -22.13424336 22.27699788 -33 30 C-33.66 29.67 -34.32 29.34 -35 29 C-34.67 28.34 -34.34 27.68 -34 27 C-34.66 27 -35.32 27 -36 27 C-36.33 25.68 -36.66 24.36 -37 23 C-36.01 23.33 -35.02 23.66 -34 24 C-34.33 24.66 -34.66 25.32 -35 26 C-33.35 26 -31.7 26 -30 26 C-30 25.34 -30 24.68 -30 24 C-29.34 24 -28.68 24 -28 24 C-28 23.34 -28 22.68 -28 22 C-27.01 22 -26.02 22 -25 22 C-25 21.34 -25 20.68 -25 20 C-24.01 20 -23.02 20 -22 20 C-21.87625 19.071875 -21.87625 19.071875 -21.75 18.125 C-21 16 -21 16 -19.125 14.75 C-17 14 -17 14 -14 14 C-14 13.34 -14 12.68 -14 12 C-13.34 12 -12.68 12 -12 12 C-12 11.34 -12 10.68 -12 10 C-12.66 9.67 -13.32 9.34 -14 9 C-10.27034861 6.96564469 -8.33094958 6 -4 6 C-4 5.01 -4 4.02 -4 3 C-2.68 2.67 -1.36 2.34 0 2 C0 1.34 0 0.68 0 0 Z " fill="#FFFFFF" transform="translate(351,449)"/>
<path d="M0 0 C0 0.99 0 1.98 0 3 C-0.721875 2.79375 -1.44375 2.5875 -2.1875 2.375 C-5.44641585 1.94047789 -7.08304504 2.58319331 -10 4 C-10.33 2.02 -10.66 0.04 -11 -2 C-13.24973447 -2.054138 -15.49984383 -2.09285491 -17.75 -2.125 C-19.62945312 -2.15980469 -19.62945312 -2.15980469 -21.546875 -2.1953125 C-24.73960816 -2.01472805 -26.41031936 -1.79769093 -29 0 C-29.33 0.66 -29.66 1.32 -30 2 C-32.21484375 3.10546875 -32.21484375 3.10546875 -34.9375 4.1875 C-36.28134766 4.73470703 -36.28134766 4.73470703 -37.65234375 5.29296875 C-40 6 -40 6 -42 5 C-29.6066792 -5.18493651 -14.59823043 -7.86058562 0 0 Z " fill="#FFFFFF" transform="translate(243,11)"/>
<path d="M0 0 C4.34126357 -0.37210831 6.39659968 0.65778979 10 3 C11.65816784 3.68753301 13.32459336 4.35561283 15 5 C15.70125 5.37125 16.4025 5.7425 17.125 6.125 C19.10823854 7.21144273 19.10823854 7.21144273 22 7 C22 6.01 22 5.02 22 4 C23.32 4.66 24.64 5.32 26 6 C25.979375 6.78375 25.95875 7.5675 25.9375 8.375 C25.81315937 10.98114961 25.81315937 10.98114961 27 13 C22.40492616 13.28169035 19.77033854 12.71575617 15.8203125 10.375 C14.8921875 9.83359375 13.9640625 9.2921875 13.0078125 8.734375 C12.05648437 8.16203125 11.10515625 7.5896875 10.125 7 C9.15046875 6.42765625 8.1759375 5.8553125 7.171875 5.265625 C4.77415226 3.85519986 2.38417229 2.43317151 0 1 C0 0.67 0 0.34 0 0 Z " fill="#FFFFFF" transform="translate(142,484)"/>
<path d="M0 0 C-4.1196377 1.29243536 -7.66831683 2.26252625 -12 2 C-12 2.66 -12 3.32 -12 4 C-12.71027344 4.06058594 -13.42054687 4.12117188 -14.15234375 4.18359375 C-15.07144531 4.26738281 -15.99054688 4.35117188 -16.9375 4.4375 C-17.85402344 4.51871094 -18.77054688 4.59992188 -19.71484375 4.68359375 C-21.96159732 4.76044976 -21.96159732 4.76044976 -23 6 C-24.99964982 6.08758003 -27.0023611 6.10696576 -29.00390625 6.09765625 C-30.21884766 6.09443359 -31.43378906 6.09121094 -32.68554688 6.08789062 C-33.96494141 6.07951172 -35.24433594 6.07113281 -36.5625 6.0625 C-37.84576172 6.05798828 -39.12902344 6.05347656 -40.45117188 6.04882812 C-43.63416022 6.03699545 -46.81705762 6.02051068 -50 6 C-50 5.67 -50 5.34 -50 5 C-49.21052979 4.92483154 -48.42105957 4.84966309 -47.60766602 4.7722168 C-43.92524276 4.41756542 -40.24361971 4.05539418 -36.5625 3.6875 C-35.90194611 3.62163696 -35.24139221 3.55577393 -34.56082153 3.48791504 C-25.30599803 2.55511077 -16.20031135 1.33996296 -7.08984375 -0.546875 C-4.25500228 -0.96260396 -2.65072375 -0.97832198 0 0 Z " fill="#FFFFFF" transform="translate(104,71)"/>
<path d="M0 0 C-2.99138883 2.43388872 -5.90221645 3.94985565 -9.46484375 5.41015625 C-10.51220703 5.84263672 -11.55957031 6.27511719 -12.63867188 6.72070312 C-14.2715918 7.38489258 -14.2715918 7.38489258 -15.9375 8.0625 C-17.56461914 8.73249023 -17.56461914 8.73249023 -19.22460938 9.41601562 C-22.1469761 10.61765259 -25.07166796 11.81298111 -28 13 C-28.87857666 13.39759521 -29.75715332 13.79519043 -30.66235352 14.20483398 C-33 15 -33 15 -36 14 C-35.67 13.34 -35.34 12.68 -35 12 C-32.6954948 11.36182933 -30.38503677 10.97962677 -28.03125 10.5625 C-27.3609375 10.376875 -26.690625 10.19125 -26 10 C-25.67 9.34 -25.34 8.68 -25 8 C-21.65489648 6.37265234 -19.81164166 6 -16 6 C-16 5.34 -16 4.68 -16 4 C-14.35 4 -12.7 4 -11 4 C-10.67 3.01 -10.34 2.02 -10 1 C-6.76421296 -0.31828361 -3.44785988 -0.07836045 0 0 Z " fill="#FFFFFF" transform="translate(276,501)"/>
<path d="M0 0 C4.46583264 1.35748971 6.2437667 3.14969824 8.8125 7 C9.41707031 7.886875 10.02164063 8.77375 10.64453125 9.6875 C12 12 12 12 12 14 C12.66 14 13.32 14 14 14 C14.103125 14.639375 14.20625 15.27875 14.3125 15.9375 C14.539375 16.618125 14.76625 17.29875 15 18 C15.99 18.33 16.98 18.66 18 19 C18 19.66 18 20.32 18 21 C19.53959165 22.14025789 19.53959165 22.14025789 21.4375 23.25 C24.43110932 25.27189339 24.90187388 25.65328772 25.9375 29.3125 C25.958125 30.199375 25.97875 31.08625 26 32 C16.2865149 22.35516144 7.74451306 12.27813118 0 1 C0 0.67 0 0.34 0 0 Z " fill="#FFFFFF" transform="translate(59,407)"/>
<path d="M0 0 C0.66 0 1.32 0 2 0 C5.84369812 9.88634913 5.84369812 9.88634913 6.5 14.5625 C7.20047541 19.37826843 9.12623674 23.53407414 11 28 C12.62546608 32.22621182 13.21588759 35.46636067 13 40 C10.67671802 37.67671802 10.18564138 36.04543861 9.16015625 32.94140625 C8.81919922 31.91466797 8.47824219 30.88792969 8.12695312 29.83007812 C7.60004883 28.21262695 7.60004883 28.21262695 7.0625 26.5625 C6.54139648 24.99725586 6.54139648 24.99725586 6.00976562 23.40039062 C0 5.16737288 0 5.16737288 0 0 Z " fill="#FFFFFF" transform="translate(19,314)"/>
<path d="M0 0 C0 0.66 0 1.32 0 2 C-0.99 2 -1.98 2 -3 2 C-3 2.66 -3 3.32 -3 4 C-4.59711646 5.39131742 -6.25352684 6.71517335 -7.9375 8 C-11.51216924 10.54336771 -11.51216924 10.54336771 -14 14 C-14.66 14 -15.32 14 -16 14 C-16.226875 14.598125 -16.45375 15.19625 -16.6875 15.8125 C-18.33811133 18.56351888 -20.1972081 19.52484637 -23 21 C-23 16.05824644 -19.20926704 13.24361316 -15.94921875 9.80859375 C-12.02537398 5.91107468 -5.7707693 0 0 0 Z " fill="#FFFFFF" transform="translate(40,81)"/>
<path d="M0 0 C0.66 0.33 1.32 0.66 2 1 C0.68 1.33 -0.64 1.66 -2 2 C-2 2.66 -2 3.32 -2 4 C-11.41002278 7.44419134 -11.41002278 7.44419134 -16 7 C-16 7.66 -16 8.32 -16 9 C-21.39460953 11.27141454 -26.26157749 11.20413361 -32 11 C-29.22120899 9.52578904 -26.5350251 8.4719104 -23.515625 7.59765625 C-22.23558594 7.22157227 -22.23558594 7.22157227 -20.9296875 6.83789062 C-20.04539062 6.58201172 -19.16109375 6.32613281 -18.25 6.0625 C-13.25415073 4.61340722 -8.32177695 3.16772655 -3.484375 1.24609375 C-2.33453125 0.83488281 -1.1846875 0.42367187 0 0 Z " fill="#FFFFFF" transform="translate(136,59)"/>
<path d="M0 0 C1.98 0 3.96 0 6 0 C2.11592189 3.31858015 -1.88567041 5.75412915 -6.375 8.125 C-7.32632812 8.64513672 -7.32632812 8.64513672 -8.296875 9.17578125 C-12.4573111 11.39185028 -16.42657263 12.85368875 -21 14 C-21 13.34 -21 12.68 -21 12 C-19.02 11.67 -17.04 11.34 -15 11 C-15 10.01 -15 9.02 -15 8 C-12.69 7.34 -10.38 6.68 -8 6 C-8 5.34 -8 4.68 -8 4 C-5.36 3.67 -2.72 3.34 0 3 C0 2.01 0 1.02 0 0 Z " fill="#FFFFFF" transform="translate(297,487)"/>
<path d="M0 0 C0.66 0.33 1.32 0.66 2 1 C1.01 2.32 0.02 3.64 -1 5 C-0.67 5.66 -0.34 6.32 0 7 C-5.5 11 -5.5 11 -10 11 C-10.268125 11.61875 -10.53625 12.2375 -10.8125 12.875 C-12 15 -12 15 -15 17 C-17.1875 16.625 -17.1875 16.625 -19 16 C-18.13117188 15.34773438 -17.26234375 14.69546875 -16.3671875 14.0234375 C-10.56888742 9.63757613 -4.94195142 5.36554725 0 0 Z " fill="#FFFFFF" transform="translate(196,20)"/>
<path d="M0 0 C-0.53895377 3.7726764 -1.99535358 5.68212991 -5 8 C-7 7.6875 -7 7.6875 -9 7 C-11.18703385 7.37907282 -11.18703385 7.37907282 -13 8 C-13 8.66 -13 9.32 -13 10 C-19.96428571 12.27678571 -19.96428571 12.27678571 -24 11 C-23.44014404 10.73783691 -22.88028809 10.47567383 -22.3034668 10.20556641 C-19.76363475 9.01453452 -17.22555644 7.81981069 -14.6875 6.625 C-13.80642578 6.2125 -12.92535156 5.8 -12.01757812 5.375 C-11.17001953 4.97539063 -10.32246094 4.57578125 -9.44921875 4.1640625 C-8.27879028 3.61419678 -8.27879028 3.61419678 -7.0847168 3.05322266 C-1.04126101 0 -1.04126101 0 0 0 Z " fill="#FFFFFF" transform="translate(162,47)"/>
<path d="M0 0 C3.98712321 1.83246572 7.58084504 4.23855775 11.25 6.625 C11.8996875 7.04523437 12.549375 7.46546875 13.21875 7.8984375 C14.81368881 8.93045673 16.40700669 9.96498028 18 11 C16.1875 11.625 16.1875 11.625 14 12 C13.01 11.34 12.02 10.68 11 10 C11 9.34 11 8.68 11 8 C7.535 9.485 7.535 9.485 4 11 C3.52014033 9.72942818 3.0411407 8.45853152 2.5625 7.1875 C2.16224609 6.12595703 2.16224609 6.12595703 1.75390625 5.04296875 C1.13774814 3.37327604 0.56280765 1.68842296 0 0 Z " fill="#FFFFFF" transform="translate(270,35)"/>
<path d="M0 0 C0.99 0.33 1.98 0.66 3 1 C5.07422976 9.03764031 5.2144997 16.72984476 5 25 C4.67 25 4.34 25 4 25 C3.32533254 21.77245186 2.66169431 18.54273065 2 15.3125 C1.80921875 14.40048828 1.6184375 13.48847656 1.421875 12.54882812 C1.24140625 11.66259766 1.0609375 10.77636719 0.875 9.86328125 C0.70742187 9.05157471 0.53984375 8.23986816 0.3671875 7.40356445 C-0.0153713 4.89938135 -0.06298509 2.52924498 0 0 Z " fill="#FFFFFF" transform="translate(14,288)"/>
<path d="M0 0 C1.485 0.99 1.485 0.99 3 2 C2.5031058 11.45406594 1.62220942 20.66048365 0 30 C-0.33 30 -0.66 30 -1 30 C-1.14141393 19.94389808 -0.72904559 10.02437685 0 0 Z " fill="#FFFFFF" transform="translate(437,256)"/>
<path d="M0 0 C0.33 0 0.66 0 1 0 C0.125 6.875 0.125 6.875 -1 8 C-1.53329649 10.54100092 -1.96418343 13.09334021 -2.40234375 15.65234375 C-3 18 -3 18 -5 20 C-5.39764263 21.98821313 -5.73775349 23.98944339 -6 26 C-6.33 26 -6.66 26 -7 26 C-7.71589213 16.69340237 -4.48611724 8.07501104 0 0 Z " fill="#FFFFFF" transform="translate(15,102)"/>
<path d="M0 0 C0.33 0.66 0.66 1.32 1 2 C1.66 2 2.32 2 3 2 C3 2.66 3 3.32 3 4 C4.86205078 3.7834375 4.86205078 3.7834375 6.76171875 3.5625 C8.40362905 3.37485311 10.04555708 3.18736126 11.6875 3 C12.50412109 2.90460937 13.32074219 2.80921875 14.16210938 2.7109375 C18.12860052 2.26129478 22.00002463 1.86965457 26 2 C20.98999311 5.34000459 16.98016371 5.18286957 11.1875 5.1875 C10.39279297 5.19974609 9.59808594 5.21199219 8.77929688 5.22460938 C4.11467732 5.23618411 0.38809952 4.78774425 -4 3 C-4 2.34 -4 1.68 -4 1 C-2.68 0.67 -1.36 0.34 0 0 Z " fill="#FFFFFF" transform="translate(214,514)"/>
<path d="M0 0 C0 0.66 0 1.32 0 2 C0.66 2.33 1.32 2.66 2 3 C0.35 3.33 -1.3 3.66 -3 4 C-2.67 5.32 -2.34 6.64 -2 8 C-2.7425 7.773125 -3.485 7.54625 -4.25 7.3125 C-7.05914993 6.70523302 -7.05914993 6.70523302 -9.3125 8.4375 C-9.869375 8.953125 -10.42625 9.46875 -11 10 C-11.66 9.67 -12.32 9.34 -13 9 C-11.90344712 7.68113228 -10.79746577 6.37009943 -9.6875 5.0625 C-9.07261719 4.33160156 -8.45773438 3.60070312 -7.82421875 2.84765625 C-5.30374248 0.29479699 -3.54836689 0 0 0 Z " fill="#FFFFFF" transform="translate(206,16)"/>
<path d="M0 0 C4.58420796 1.30880493 7.92722076 3.10209606 11.75 5.9375 C12.69359375 6.62714844 13.6371875 7.31679687 14.609375 8.02734375 C17 10 17 10 19 13 C18.01 13.495 18.01 13.495 17 14 C14.875 13.0625 14.875 13.0625 13 12 C13 11.01 13 10.02 13 9 C12.01 8.67 11.02 8.34 10 8 C9.34 7.67 8.68 7.34 8 7 C8 6.34 8 5.68 8 5 C6.35 4.67 4.7 4.34 3 4 C3 3.34 3 2.68 3 2 C2.01 2 1.02 2 0 2 C0 1.34 0 0.68 0 0 Z M12 13 C14 14 14 14 14 14 Z " fill="#FFFFFF" transform="translate(408,80)"/>
<path d="M0 0 C0.66 0 1.32 0 2 0 C2.87707861 2.42444493 3.16772035 3.57996105 2.19555664 6.01464844 C1.77137451 6.7059082 1.34719238 7.39716797 0.91015625 8.109375 C0.45576172 8.86347656 0.00136719 9.61757813 -0.46679688 10.39453125 C-0.95212891 11.17183594 -1.43746094 11.94914062 -1.9375 12.75 C-2.41896484 13.54277344 -2.90042969 14.33554687 -3.39648438 15.15234375 C-4.58674387 17.10861183 -5.78806991 19.05710972 -7 21 C-7.33 19.68 -7.66 18.36 -8 17 C-7.34 17 -6.68 17 -6 17 C-6 15.35 -6 13.7 -6 12 C-5.34 12 -4.68 12 -4 12 C-3.34 9.69 -2.68 7.38 -2 5 C-1.34 5 -0.68 5 0 5 C0 3.35 0 1.7 0 0 Z " fill="#FFFFFF" transform="translate(403,379)"/>
<path d="M0 0 C7.40774509 1.39304941 14.70170537 3.11899623 22 5 C22 5.33 22 5.66 22 6 C17.38 6.33 12.76 6.66 8 7 C7.67 5.68 7.34 4.36 7 3 C4.69 2.67 2.38 2.34 0 2 C0 1.34 0 0.68 0 0 Z " fill="#FFFFFF" transform="translate(328,65)"/>
<path d="M0 0 C0.99 0.33 1.98 0.66 3 1 C-0.27756095 7.28199181 -4.48636368 12.55515231 -9 18 C-10.125 14.25 -10.125 14.25 -9 12 C-8.34 12 -7.68 12 -7 12 C-7 11.34 -7 10.68 -7 10 C-6.34 10 -5.68 10 -5 10 C-4.855625 9.38125 -4.71125 8.7625 -4.5625 8.125 C-4 6 -4 6 -3 4 C-2.34 4 -1.68 4 -1 4 C-0.67 2.68 -0.34 1.36 0 0 Z " fill="#FFFFFF" transform="translate(384,411)"/>
<path d="M0 0 C0.66 0 1.32 0 2 0 C2.51917486 8.34525522 0.95829294 15.91038514 -1 24 C-1.33 24 -1.66 24 -2 24 C-2.02685938 21.85423363 -2.04633088 19.70837355 -2.0625 17.5625 C-2.07410156 16.36753906 -2.08570313 15.17257812 -2.09765625 13.94140625 C-2 11 -2 11 -1 10 C-0.76712992 8.31816052 -0.58735834 6.6287584 -0.4375 4.9375 C-0.35371094 4.01839844 -0.26992188 3.09929687 -0.18359375 2.15234375 C-0.12300781 1.44207031 -0.06242187 0.73179687 0 0 Z " fill="#FFFFFF" transform="translate(433,288)"/>
<path d="M0 0 C1.27875 0.103125 2.5575 0.20625 3.875 0.3125 C4.95394531 0.39951172 4.95394531 0.39951172 6.0546875 0.48828125 C8 1 8 1 10 4 C10.33 4.99 10.66 5.98 11 7 C11.9590625 7.2165625 11.9590625 7.2165625 12.9375 7.4375 C15 8 15 8 16.25 10.0625 C16.4975 10.701875 16.745 11.34125 17 12 C12.66498025 10.52818439 9.28143997 8.2017333 5.6875 5.4375 C4.86282227 4.8197168 4.86282227 4.8197168 4.02148438 4.18945312 C2.65866955 3.1550682 1.32624296 2.08087744 0 1 C0 0.67 0 0.34 0 0 Z " fill="#FFFFFF" transform="translate(117,467)"/>
<path d="M0 0 C4.34126357 -0.37210831 6.39659968 0.65778979 10 3 C11.2684375 3.495 11.2684375 3.495 12.5625 4 C15.07017951 5.02879159 16.90709098 6.29466672 19 8 C16.95703125 8.74609375 16.95703125 8.74609375 14 9 C11.38885261 7.78491161 9.11083131 6.57240262 6.6875 5.0625 C5.71973633 4.48338867 5.71973633 4.48338867 4.73242188 3.89257812 C3.14708194 2.94137417 1.57243045 1.97239609 0 1 C0 0.67 0 0.34 0 0 Z " fill="#FFFFFF" transform="translate(142,484)"/>
<path d="M0 0 C-0.55479057 3.84885956 -2.24418315 5.59260518 -5 8.25 C-5.721875 8.95640625 -6.44375 9.6628125 -7.1875 10.390625 C-9 12 -9 12 -10 12 C-10 10.02 -10 8.04 -10 6 C-8.02 5.34 -6.04 4.68 -4 4 C-4 3.01 -4 2.02 -4 1 C-2 0 -2 0 0 0 Z " fill="#FFFFFF" transform="translate(365,437)"/>
<path d="M0 0 C1.8671875 0.15625 1.8671875 0.15625 4 1 C5.1953125 3.46875 5.1953125 3.46875 6.125 6.5 C6.70165519 8.34910922 7.31738112 10.18733137 8 12 C8.66 12.33 9.32 12.66 10 13 C10 14.32 10 15.64 10 17 C10.66 17.33 11.32 17.66 12 18 C11.01 18 10.02 18 9 18 C7.49480613 15.37785672 5.99568681 12.75255792 4.5 10.125 C3.85611328 9.00544922 3.85611328 9.00544922 3.19921875 7.86328125 C2.79316406 7.14785156 2.38710938 6.43242187 1.96875 5.6953125 C1.59169922 5.03547363 1.21464844 4.37563477 0.82617188 3.69580078 C0 2 0 2 0 0 Z " fill="#FFFFFF" transform="translate(43,379)"/>
<path d="M0 0 C0.66 0.33 1.32 0.66 2 1 C1.33392561 5.40958108 -0.26624729 9.26572186 -2.0625 13.3125 C-2.34416016 13.95767578 -2.62582031 14.60285156 -2.91601562 15.26757812 C-3.6062743 16.84698358 -4.30253198 18.42376493 -5 20 C-5.33 20 -5.66 20 -6 20 C-5.505 15.545 -5.505 15.545 -5 11 C-4.34 11 -3.68 11 -3 11 C-3 9.35 -3 7.7 -3 6 C-2.34 6 -1.68 6 -1 6 C-0.67 4.02 -0.34 2.04 0 0 Z " fill="#FFFFFF" transform="translate(418,348)"/>
<path d="M0 0 C0.66 0.66 1.32 1.32 2 2 C1.63114057 9.24950649 -1.38321252 16.31829992 -4 23 C-4.33 23 -4.66 23 -5 23 C-5.20017461 18.69624593 -4.63351219 15.93964705 -3 12 C-2.6186926 9.67402489 -2.27539746 7.34087842 -2 5 C-1.34 5 -0.68 5 0 5 C0 3.35 0 1.7 0 0 Z " fill="#FFFFFF" transform="translate(425,326)"/>
<path d="M0 0 C0.99 0.86625 1.98 1.7325 3 2.625 C6.86190708 5.94197541 10.89447006 8.99283262 15 12 C14.34 12.66 13.68 13.32 13 14 C7.35532718 11.70031848 3.51820299 6.82124113 0 2 C0 1.34 0 0.68 0 0 Z " fill="#FFFFFF" transform="translate(255,22)"/>
<path d="M0 0 C0.66 0 1.32 0 2 0 C4.13619737 6.20514474 5.36517527 11.42684522 5 18 C4.67 16.68 4.34 15.36 4 14 C3.34 14 2.68 14 2 14 C1.77213542 11.94921875 1.54427083 9.8984375 1.31640625 7.84765625 C1.18113386 5.98859771 1.18113386 5.98859771 0 5 C-0.04063832 3.33382885 -0.042721 1.66611905 0 0 Z " fill="#FFFFFF" transform="translate(437,110)"/>
<path d="M0 0 C5.91969002 1.75990784 11.41634992 4.39694605 17 7 C17 7.33 17 7.66 17 8 C12.00216563 8.36020428 9.01981128 7.34389935 4.625 5 C3.56539063 4.443125 2.50578125 3.88625 1.4140625 3.3125 C0.61742187 2.879375 -0.17921875 2.44625 -1 2 C-0.67 1.34 -0.34 0.68 0 0 Z " fill="#FFFFFF" transform="translate(295,51)"/>
<path d="M0 0 C1.485 0.99 1.485 0.99 3 2 C2.71617054 3.75128818 2.42260471 5.50100003 2.125 7.25 C1.96257812 8.22453125 1.80015625 9.1990625 1.6328125 10.203125 C1.05144152 12.77264117 0.29159735 14.72071056 -1 17 C-1.02709444 14.91673869 -1.04643873 12.83337559 -1.0625 10.75 C-1.07410156 9.58984375 -1.08570313 8.4296875 -1.09765625 7.234375 C-1.01782092 4.59022872 -0.78643778 2.50173909 0 0 Z " fill="#FFFFFF" transform="translate(428,311)"/>
<path d="M0 0 C0.33 0.66 0.66 1.32 1 2 C-3.96219882 7.0963123 -6.86084858 9.19179418 -14 10 C-11.44928686 7.17071068 -8.53378728 5.32106736 -5.3125 3.3125 C-4.31863281 2.68988281 -3.32476562 2.06726562 -2.30078125 1.42578125 C-1.54152344 0.95527344 -0.78226563 0.48476563 0 0 Z " fill="#FFFFFF" transform="translate(176,37)"/>
<path d="M0 0 C1.43861294 0.08746284 2.87597508 0.19565348 4.3125 0.3125 C5.11300781 0.37050781 5.91351563 0.42851562 6.73828125 0.48828125 C9.36272334 1.08206694 10.30820672 1.95780294 12 4 C10 5 10 5 8.1875 4.4375 C5.27253131 3.85450626 3.6372887 4.75461367 1 6 C0.67 4.02 0.34 2.04 0 0 Z " fill="#FFFFFF" transform="translate(232,9)"/>
<path d="M0 0 C0.66 1.32 1.32 2.64 2 4 C0.85821872 5.66944521 -0.28852905 7.3354948 -1.4375 9 C-2.07558594 9.928125 -2.71367187 10.85625 -3.37109375 11.8125 C-3.90863281 12.534375 -4.44617188 13.25625 -5 14 C-5.33 14 -5.66 14 -6 14 C-6 12.35 -6 10.7 -6 9 C-5.34 9 -4.68 9 -4 9 C-4.33 7.68 -4.66 6.36 -5 5 C-3.35 4.67 -1.7 4.34 0 4 C0 2.68 0 1.36 0 0 Z " fill="#FFFFFF" transform="translate(393,398)"/>
<path d="M0 0 C2.97 0.495 2.97 0.495 6 1 C3.32975467 2.78016355 0.94969139 3.97163019 -2 5.1875 C-2.86625 5.55230469 -3.7325 5.91710937 -4.625 6.29296875 C-7 7 -7 7 -10 6 C-9.67 5.34 -9.34 4.68 -9 4 C-6.93359375 3.3671875 -6.93359375 3.3671875 -4.4375 2.875 C-3.61121094 2.70742188 -2.78492188 2.53984375 -1.93359375 2.3671875 C-0.97646484 2.18542969 -0.97646484 2.18542969 0 2 C0 1.34 0 0.68 0 0 Z " fill="#FFFFFF" transform="translate(250,509)"/>
<path d="M0 0 C1.98 0 3.96 0 6 0 C2.54077371 2.95051654 -0.7838704 5.25855517 -5 7 C-5.99 6.67 -6.98 6.34 -8 6 C-8 5.34 -8 4.68 -8 4 C-5.36 3.67 -2.72 3.34 0 3 C0 2.01 0 1.02 0 0 Z " fill="#FFFFFF" transform="translate(297,487)"/>
<path d="M0 0 C4.41743795 1.38833764 7.0833938 3.39713352 10 7 C9.6328125 9.1640625 9.6328125 9.1640625 9 11 C7.49703315 9.35687553 5.99769719 7.71042916 4.5 6.0625 C3.6646875 5.14597656 2.829375 4.22945313 1.96875 3.28515625 C0 1 0 1 0 0 Z " fill="#FFFFFF" transform="translate(75,428)"/>
<path d="M0 0 C5.36095277 1.58921525 10.70843973 3.18972938 16 5 C16 5.33 16 5.66 16 6 C14.58297487 5.85769192 13.1663904 5.71099254 11.75 5.5625 C10.56664062 5.44068359 10.56664062 5.44068359 9.359375 5.31640625 C7.17635361 5.02365007 5.1226818 4.57935581 3 4 C3 3.34 3 2.68 3 2 C2.01 2 1.02 2 0 2 C0 1.34 0 0.68 0 0 Z " fill="#FFFFFF" transform="translate(312,59)"/>
<path d="M0 0 C-1.4022578 2.8045156 -3.06070622 3.0442118 -5.9375 4.1875 C-6.83339844 4.55230469 -7.72929687 4.91710937 -8.65234375 5.29296875 C-11 6 -11 6 -13 5 C-8.58490204 0.69258736 -6.42286118 -0.64228612 0 0 Z " fill="#FFFFFF" transform="translate(214,11)"/>
<path d="M0 0 C-0.54226981 3.79588866 -2.20127563 5.47211993 -5 8 C-5.66 7.34 -6.32 6.68 -7 6 C-7 5.01 -7 4.02 -7 3 C-2.77777778 0 -2.77777778 0 0 0 Z " fill="#FFFFFF" transform="translate(162,47)"/>
<path d="M0 0 C-2.7343066 2.7343066 -4.76993555 2.95340665 -8.578125 3.09765625 C-9.45984375 3.08605469 -10.3415625 3.07445313 -11.25 3.0625 C-12.14203125 3.05347656 -13.0340625 3.04445313 -13.953125 3.03515625 C-14.62859375 3.02355469 -15.3040625 3.01195313 -16 3 C-10.42028161 0.16402743 -6.22522631 -0.10375377 0 0 Z " fill="#FFFFFF" transform="translate(120,67)"/>
<path d="M0 0 C4.61816193 1.51641138 4.61816193 1.51641138 6.36328125 3.7265625 C7.2421875 5.484375 8.12109375 7.2421875 9 9 C8.01 9 7.02 9 6 9 C4.39453125 7.03125 4.39453125 7.03125 2.8125 4.5 C2.28269531 3.6646875 1.75289062 2.829375 1.20703125 1.96875 C0.80871094 1.3190625 0.41039062 0.669375 0 0 Z " fill="#FFFFFF" transform="translate(59,407)"/>
<path d="M0 0 C3.82669043 3.42388092 5.72278474 6.00724943 7 11 C6.34 11.66 5.68 12.32 5 13 C4.54625 11.88625 4.0925 10.7725 3.625 9.625 C2.27534014 6.03800992 2.27534014 6.03800992 0 4 C0 2.68 0 1.36 0 0 Z " fill="#FFFFFF" transform="translate(430,97)"/>
<path d="M0 0 C2.97 0.495 2.97 0.495 6 1 C6.33 2.32 6.66 3.64 7 5 C4.03 4.67 1.06 4.34 -2 4 C-1.34 2.68 -0.68 1.36 0 0 Z " fill="#FFFFFF" transform="translate(269,496)"/>
<path d="M0 0 C2 1 2 1 3.125 3.6875 C3.98889074 6.9579435 4.16013991 9.63706182 4 13 C0.87506296 9.87506296 0.04088867 7.08354985 -0.125 2.6875 C-0.08375 1.800625 -0.0425 0.91375 0 0 Z " fill="#FFFFFF" transform="translate(28,341)"/>
<path d="M0 0 C-3.59258142 2.89158993 -5.17748885 4.05306524 -9.875 3.75 C-10.90625 3.5025 -11.9375 3.255 -13 3 C-8.8341563 0.22277086 -4.9360889 -1.89849573 0 0 Z " fill="#FFFFFF" transform="translate(53,78)"/>
<path d="M0 0 C1.485 0.99 1.485 0.99 3 2 C3.29296875 4.8203125 3.29296875 4.8203125 3.1875 8.125 C3.16042969 9.22070312 3.13335938 10.31640625 3.10546875 11.4453125 C3.07066406 12.28835938 3.03585938 13.13140625 3 14 C2.67 14 2.34 14 2 14 C-0.29612756 4.58997722 -0.29612756 4.58997722 0 0 Z " fill="#FFFFFF" transform="translate(16,299)"/>
<path d="M0 0 C0.99 0.33 1.98 0.66 3 1 C-0.75 7.875 -0.75 7.875 -3 9 C-3 7.35 -3 5.7 -3 4 C-2.34 4 -1.68 4 -1 4 C-0.67 2.68 -0.34 1.36 0 0 Z " fill="#FFFFFF" transform="translate(384,411)"/>
<path d="M0 0 C0.99 0.33 1.98 0.66 3 1 C3.33 4.63 3.66 8.26 4 12 C2.09681116 9.14521674 1.5380901 7.58058692 0.875 4.3125 C0.70742188 3.50425781 0.53984375 2.69601562 0.3671875 1.86328125 C0.24601562 1.24839844 0.12484375 0.63351562 0 0 Z " fill="#FFFFFF" transform="translate(24,332)"/>
<path d="M0 0 C2.30143236 3.45214853 2.13833854 4.23479324 1.625 8.1875 C1.51414062 9.08855469 1.40328125 9.98960937 1.2890625 10.91796875 C1.19367187 11.60503906 1.09828125 12.29210937 1 13 C0.67 13 0.34 13 0 13 C-0.19397476 11.02145742 -0.38001321 9.0421352 -0.5625 7.0625 C-0.66691406 5.96035156 -0.77132813 4.85820312 -0.87890625 3.72265625 C-0.91886719 2.82417969 -0.95882813 1.92570312 -1 1 C-0.67 0.67 -0.34 0.34 0 0 Z " fill="#FFFFFF" transform="translate(13,274)"/>
<path d="M0 0 C1.32 0 2.64 0 4 0 C3.34 2.97 2.68 5.94 2 9 C1.01 9 0.02 9 -1 9 C-0.67 6.03 -0.34 3.06 0 0 Z " fill="#FFFFFF" transform="translate(353,440)"/>
<path d="M0 0 C0.66 0 1.32 0 2 0 C2.75 1.6875 2.75 1.6875 3 4 C1.0625 6.75 1.0625 6.75 -1 9 C-1.33 7.68 -1.66 6.36 -2 5 C-1.34 5 -0.68 5 0 5 C0 3.35 0 1.7 0 0 Z " fill="#FFFFFF" transform="translate(403,379)"/>
<path d="M0 0 C4.51478398 0.53115106 7.34666857 2.36620292 11 5 C9.1875 5.625 9.1875 5.625 7 6 C6.01 5.34 5.02 4.68 4 4 C4 3.34 4 2.68 4 2 C2.68 2 1.36 2 0 2 C0 1.34 0 0.68 0 0 Z " fill="#FFFFFF" transform="translate(277,41)"/>
<path d="M0 0 C2.64 0.33 5.28 0.66 8 1 C8.33 2.32 8.66 3.64 9 5 C4.68607774 4.5206753 2.83430453 3.2542015 0 0 Z " fill="#FFFFFF" transform="translate(117,467)"/>
<path d="M0 0 C0.99 0 1.98 0 3 0 C2.6875 2.375 2.6875 2.375 2 5 C1.01 5.66 0.02 6.32 -1 7 C-1.04254356 5.00045254 -1.04080783 2.99958364 -1 1 C-0.67 0.67 -0.34 0.34 0 0 Z " fill="#FFFFFF" transform="translate(356,442)"/>
<path d="M0 0 C1.32 0.33 2.64 0.66 4 1 C-0.625 5 -0.625 5 -4 5 C-4.33 5.66 -4.66 6.32 -5 7 C-5 6.01 -5 5.02 -5 4 C-4.34 4 -3.68 4 -3 4 C-3 3.34 -3 2.68 -3 2 C-2.01 2 -1.02 2 0 2 C0 1.34 0 0.68 0 0 Z " fill="#FFFFFF" transform="translate(40,81)"/>
<path d="M0 0 C0.99 0.33 1.98 0.66 3 1 C2.67 1.66 2.34 2.32 2 3 C3.65 3 5.3 3 7 3 C7 3.66 7 4.32 7 5 C5.35 5.66 3.7 6.32 2 7 C2.33 6.01 2.66 5.02 3 4 C2.34 4 1.68 4 1 4 C0.67 2.68 0.34 1.36 0 0 Z " fill="#FFFFFF" transform="translate(314,472)"/>
<path d="M0 0 C1.65 0 3.3 0 5 0 C5.99 1.98 6.98 3.96 8 6 C4.63408134 4.55746343 2.48952921 2.66735273 0 0 Z " fill="#FFFFFF" transform="translate(104,457)"/>
<path d="M0 0 C0.33 0 0.66 0 1 0 C0.25 6.625 0.25 6.625 -2 10 C-2.66 10 -3.32 10 -4 10 C-2.8905928 6.51329166 -1.73662334 3.22515763 0 0 Z " fill="#FFFFFF" transform="translate(15,102)"/>
<path d="M0 0 C-0.25 1.875 -0.25 1.875 -1 4 C-3.0625 5.25 -3.0625 5.25 -5 6 C-4.625 3.5625 -4.625 3.5625 -4 1 C-2 0 -2 0 0 0 Z " fill="#FFFFFF" transform="translate(334,464)"/>
<path d="M0 0 C2.31 1.65 4.62 3.3 7 5 C4 6 4 6 1 6 C0.67 4.02 0.34 2.04 0 0 Z " fill="#FFFFFF" transform="translate(248,16)"/>
<path d="M0 0 C0.99 0.33 1.98 0.66 3 1 C3 1.66 3 2.32 3 3 C3.66 3 4.32 3 5 3 C5.33 3.99 5.66 4.98 6 6 C2.62496331 4.8141763 0.35277269 3.72426311 -2 1 C-1.34 0.67 -0.68 0.34 0 0 Z " fill="#FFFFFF" transform="translate(136,478)"/>
<path d="M0 0 C2.475 0.99 2.475 0.99 5 2 C5 2.99 5 3.98 5 5 C2.525 4.01 2.525 4.01 0 3 C0 2.01 0 1.02 0 0 Z M-1 4 C1 5 1 5 1 5 Z " fill="#FFFFFF" transform="translate(421,89)"/>
<path d="M0 0 C0.33 0.66 0.66 1.32 1 2 C1.66 2 2.32 2 3 2 C3 2.66 3 3.32 3 4 C0.69 3.67 -1.62 3.34 -4 3 C-4 2.34 -4 1.68 -4 1 C-2.68 0.67 -1.36 0.34 0 0 Z " fill="#FFFFFF" transform="translate(214,514)"/>
<path d="M0 0 C2.64 0 5.28 0 8 0 C6.35 1.32 4.7 2.64 3 4 C1 3 1 3 0 0 Z " fill="#FFFFFF" transform="translate(302,483)"/>
<path d="M0 0 C-1.65 1.32 -3.3 2.64 -5 4 C-5.66 2.68 -6.32 1.36 -7 0 C-3.98968256 -0.93423645 -3.13349732 -1.04449911 0 0 Z " fill="#FFFFFF" transform="translate(316,479)"/>
<path d="M0 0 C0.99 0.99 1.98 1.98 3 3 C2.01 4.32 1.02 5.64 0 7 C-1 6 -1 6 -1.125 3.5 C-1 1 -1 1 0 0 Z " fill="#FFFFFF" transform="translate(51,385)"/>
<path d="M0 0 C0.99 0.33 1.98 0.66 3 1 C3 3.64 3 6.28 3 9 C2.67 7.68 2.34 6.36 2 5 C1.34 5 0.68 5 0 5 C0 3.35 0 1.7 0 0 Z " fill="#FFFFFF" transform="translate(439,119)"/>
<path d="M0 0 C-2.67478244 1.6627026 -4.9995144 2.99983813 -8 4 C-8 3.01 -8 2.02 -8 1 C-4.93251126 -0.86240388 -3.40254489 -1.2151946 0 0 Z " fill="#FFFFFF" transform="translate(142,60)"/>
<path d="" fill="#FFFFFF" transform="translate(0,0)"/>
<path d="" fill="#FFFFFF" transform="translate(0,0)"/>
<path d="" fill="#FFFFFF" transform="translate(0,0)"/>
<path d="" fill="#FFFFFF" transform="translate(0,0)"/>
<path d="" fill="#FFFFFF" transform="translate(0,0)"/>
<path d="" fill="#FFFFFF" transform="translate(0,0)"/>
<path d="" fill="#FFFFFF" transform="translate(0,0)"/>
<path d="" fill="#FFFFFF" transform="translate(0,0)"/>
<path d="" fill="#FFFFFF" transform="translate(0,0)"/>
<path d="" fill="#FFFFFF" transform="translate(0,0)"/>
<path d="" fill="#FFFFFF" transform="translate(0,0)"/>
</svg>
